<svg preserveAspectRatio="xMidYMid meet" xmlns="http://www.w3.org/2000/svg">
    <symbol id="tnw" viewBox="0 0 66 16">
        <path d="M32.23993 5A6.00284 6.00284 0 0 1 34 9.24261V16h-6v-5.929a2.00249 2.00249 0 0 0-.58856-1.41424l-2.07239-2.07101A2.00315 2.00315 0 0 0 23.92346 6H22v10h-6V0h8.75189a6 6 0 0 1 4.24268 1.75739zM60 0v5.929a2.00245 2.00245 0 0 1-.58856 1.41418l-2.07385 2.071A1.99969 1.99969 0 0 1 55.9234 10h-2.88214A5.99166 5.99166 0 0 0 54 6.75732V0h-6v5.929a2.00245 2.00245 0 0 1-.58856 1.41418l-2.07385 2.071A1.99969 1.99969 0 0 1 43.9234 10H42V0h-6v16h8.75189a6.003 6.003 0 0 0 4.244-1.75739L51 12.23938V16h5.75189a6.003 6.003 0 0 0 4.244-1.75739l3.244-3.24267A6.00264 6.00264 0 0 0 66 6.75732V0zM0 6h4v10h6V6h4V0H0z"/>
    </symbol>

    <symbol id="tnwNext" viewBox="0 0 66 16">
        <path fill="#f42" d="M32.23993 5A6.00284 6.00284 0 0 1 34 9.24261V16h-6v-5.929a2.00249 2.00249 0 0 0-.58856-1.41424l-2.07239-2.07101A2.00315 2.00315 0 0 0 23.92346 6H22v10h-6V0h8.75189a6 6 0 0 1 4.24268 1.75739zM60 0v5.929a2.00245 2.00245 0 0 1-.58856 1.41418l-2.07385 2.071A1.99969 1.99969 0 0 1 55.9234 10h-2.88214A5.99166 5.99166 0 0 0 54 6.75732V0h-6v5.929a2.00245 2.00245 0 0 1-.58856 1.41418l-2.07385 2.071A1.99969 1.99969 0 0 1 43.9234 10H42V0h-6v16h8.75189a6.003 6.003 0 0 0 4.244-1.75739L51 12.23938V16h5.75189a6.003 6.003 0 0 0 4.244-1.75739l3.244-3.24267A6.00264 6.00264 0 0 0 66 6.75732V0zM0 6h4v10h6V6h4V0H0z"/>
    </symbol>

    <symbol id="user" viewBox="0 0 24 24">
        <circle cx="12" cy="12" r="12" opacity=".25"/>
        <path d="M20.99933 19.91968a8.5681 8.5681 0 0 0-2.12042-1.80329q-.42957-.24919-1.58405-.74694a12.154 12.154 0 0 1-1.78735-.81409 1.73866 1.73866 0 0 1-.83795-.95111 3.03673 3.03673 0 0 1 .67883-2.23993q2.85342-4.593.99713-7.762a5.43875 5.43875 0 0 0-1.86694-1.912A4.71589 4.71589 0 0 0 12 3a4.76655 4.76655 0 0 0-2.4892.69037 5.21009 5.21009 0 0 0-1.85632 1.912q-1.85358 3.19143 1.01831 7.762a2.83279 2.83279 0 0 1 .65765 2.23993 1.7259 1.7259 0 0 1-.60107.74689 4.305 4.305 0 0 1-.86981.54364c-.27222.12023-.64881.27935-1.13141.47467a13.61654 13.61654 0 0 0-1.60706.74694 8.5681 8.5681 0 0 0-2.12042 1.80329 11.96437 11.96437 0 0 0 17.99866 0z"/>
    </symbol>
    <symbol id="camera" viewBox="0 0 16 16">
        <path d="M15.0332,4.40015a23.9137,23.9137,0,0,1,0,9.0664.71712.71712,0,0,1-.24121.38282.80216.80216,0,0,1-.4082.20019A58.6699,58.6699,0,0,1,8,14.40015a56.98714,56.98714,0,0,1-6.2998-.35059.80138.80138,0,0,1-.42481-.20019.62758.62758,0,0,1-.22559-.38282A23.8976,23.8976,0,0,1,.5332,8.97437a25.18343,25.18343,0,0,1,.5166-4.57422.66372.66372,0,0,1,.22559-.39161.78087.78087,0,0,1,.42481-.209q.8994-.08349,2.48339-.2168.3501-1.14843.39942-1.2832a.92439.92439,0,0,1,.30078-.4082A.78521.78521,0,0,1,5.31641,1.7Q6.64941,1.59962,8,1.59985q1.3667,0,2.75.1001a.79079.79079,0,0,1,.43359.19141.92956.92956,0,0,1,.29981.4082q.0498.134.40039,1.2832,1.66553.13478,2.5.2168a.78216.78216,0,0,1,.4082.209A.76133.76133,0,0,1,15.0332,4.40015ZM4.958,11.575A4.15492,4.15492,0,0,0,8,12.84937,4.15492,4.15492,0,0,0,11.042,11.575a4.15492,4.15492,0,0,0,1.27442-3.042A4.1549,4.1549,0,0,0,11.042,5.491,4.15492,4.15492,0,0,0,8,4.21655,4.15492,4.15492,0,0,0,4.958,5.491,4.1549,4.1549,0,0,0,3.68359,8.533,4.15492,4.15492,0,0,0,4.958,11.575Zm1.1582-4.9248a2.65591,2.65591,0,0,0,0,3.7666,2.65709,2.65709,0,0,0,3.76758,0,2.65591,2.65591,0,0,0,0-3.7666,2.65475,2.65475,0,0,0-3.76758,0Z"/>
    </symbol>
    <symbol id="check" viewBox="0 0 16 16">
        <path d="M6.99268 15.13623L.23047 8.37598l1.41406-1.41407 5.0376 5.03565L14.10547.86377l1.66406 1.10937z"/>
    </symbol>
    <symbol id="cross" viewBox="0 0 16 16">
        <path d="M14.707 2.707l-1.414-1.414L8 6.586 2.707 1.293 1.293 2.707 6.586 8l-5.293 5.293 1.414 1.414L8 9.414l5.293 5.293 1.414-1.414L9.414 8l5.293-5.293z"/>
    </symbol>
    <symbol id="facebook" viewBox="0 0 16 16">
        <path d="M16,1V15a1.007,1.007,0,0,1-1,1H11V9.78125h2l.33594-2.30469H11V5.66406a.9118.9118,0,0,1,1-1.03125h1.5V2.55469a11.284,11.284,0,0,0-1.64062-.10938c-2.19532,0-3.30469,1.21875-3.30469,3.03907V7.47656h-2V9.78125h2V16H1a1.007,1.007,0,0,1-1-1V1A1.007,1.007,0,0,1,1,0H15A1.007,1.007,0,0,1,16,1Z"/>
    </symbol>
    <symbol id="flipboard" viewBox="0 0 16 16">
        <path d="M0,0V16H16V0ZM12.8,6.4H9.6V9.6H6.4v3.2H3.2V3.2h9.6Z"/>
    </symbol>
    <symbol id="instagram" viewBox="0 0 16 16">
        <path d="M8,1.44144c2.1361,0,2.38911.00815,3.23268.04664a4.42649,4.42649,0,0,1,1.48549.27546A2.47861,2.47861,0,0,1,13.638,2.362a2.47851,2.47851,0,0,1,.59844.91986,4.42673,4.42673,0,0,1,.27546,1.48548c.03849.84358.04664,1.0966.04664,3.23269s-.00815,2.38911-.04664,3.23268a4.42675,4.42675,0,0,1-.27546,1.48549,2.6493,2.6493,0,0,1-1.51829,1.51829,4.42675,4.42675,0,0,1-1.48549.27546c-.84345.03849-1.09644.04664-3.23268.04664s-2.38923-.00815-3.23268-.04664a4.42675,4.42675,0,0,1-1.48549-.27546A2.47849,2.47849,0,0,1,2.362,13.638a2.47863,2.47863,0,0,1-.59844-.91986,4.42647,4.42647,0,0,1-.27546-1.48548C1.44959,10.38911,1.44144,10.1361,1.44144,8s.00815-2.38911.04664-3.23268a4.42649,4.42649,0,0,1,.27546-1.48549A2.47861,2.47861,0,0,1,2.362,2.362a2.47863,2.47863,0,0,1,.91986-.59844,4.42647,4.42647,0,0,1,1.48548-.27546C5.61089,1.44959,5.86391,1.44144,8,1.44144M8,0C5.82733,0,5.55489.0092,4.70161.04813A5.8719,5.8719,0,0,0,2.75969.42a3.92134,3.92134,0,0,0-1.417.92273A3.92134,3.92134,0,0,0,.42,2.75969,5.8719,5.8719,0,0,0,.04813,4.70161C.0092,5.55489,0,5.82732,0,8s.0092,2.4451.04813,3.29839A5.8719,5.8719,0,0,0,.42,13.24031a3.92142,3.92142,0,0,0,.92273,1.417,3.92134,3.92134,0,0,0,1.417.92273,5.8719,5.8719,0,0,0,1.94192.37186C5.55489,15.9908,5.82733,16,8,16s2.4451-.0092,3.29839-.04813A5.8719,5.8719,0,0,0,13.24031,15.58a4.09069,4.09069,0,0,0,2.3397-2.3397,5.8719,5.8719,0,0,0,.37186-1.94192C15.9908,10.4451,16,10.17267,16,8s-.0092-2.44511-.04813-3.29839A5.8719,5.8719,0,0,0,15.58,2.75969a3.92134,3.92134,0,0,0-.92273-1.417A3.92134,3.92134,0,0,0,13.24031.42,5.8719,5.8719,0,0,0,11.29839.04813C10.4451.0092,10.17267,0,8,0Z"/>
        <path d="M8,3.89189A4.10811,4.10811,0,1,0,12.10811,8,4.10811,4.10811,0,0,0,8,3.89189Zm0,6.77477A2.66667,2.66667,0,1,1,10.66667,8,2.66666,2.66666,0,0,1,8,10.66666Z"/>
        <circle cx="12.27042" cy="3.72958" r="0.96"/>
    </symbol>
    <symbol id="link" viewBox="0 0 16 16">
        <path d="M14.13335,1.8667a5.05776,5.05776,0,0,1,1.60156,3.68359,5.66831,5.66831,0,0,1-1.85156,4.083,6.30979,6.30979,0,0,1-.81641.7002c.01172-.12207.01758-.3003.01758-.53321a6.41853,6.41853,0,0,0-.584-2.65039,2.65147,2.65147,0,0,0,.5664-1.59961A2.49886,2.49886,0,0,0,12.25054,3.75a2.499,2.499,0,0,0-1.79981-.81641A3.19473,3.19473,0,0,0,8.26763,4a4.36288,4.36288,0,0,0-.5835.7666A5.33583,5.33583,0,0,1,9.86772,6.1167a5.30705,5.30705,0,0,1,1.4834,2.56689,4.77969,4.77969,0,0,1-.18359,2.8667,6.08107,6.08107,0,0,1-.31641.71631,6.83435,6.83435,0,0,1-2.03369,2.30029,5.474,5.474,0,0,1-1.59961.88331,5.014,5.014,0,0,1-5.33349-1.3169,5.03344,5.03344,0,0,1-1.6167-3.82471A5.75422,5.75422,0,0,1,2.13433,6.3667a8.44434,8.44434,0,0,1,.8164-.7002A6.31942,6.31942,0,0,0,3.501,8.8833a2.658,2.658,0,0,0-.54151,1.7334A2.54925,2.54925,0,0,0,3.751,12.25a2.57716,2.57716,0,0,0,1.7998.81689A3.23732,3.23732,0,0,0,7.73442,12a3.489,3.489,0,0,0,1.03321-1.8501,2.76768,2.76768,0,0,0-.3833-1.9497,2.64453,2.64453,0,0,0-.3667-.5835c-.0669-.07764-.12793-.144-.18311-.2002a3.88369,3.88369,0,0,1-.81689,3.167,5.00188,5.00188,0,0,1-.8667-.7002,5.03347,5.03347,0,0,1-1.6167-3.82471A5.75422,5.75422,0,0,1,6.40093,2.1167,5.638,5.638,0,0,1,10.45073.2666,5.06,5.06,0,0,1,14.13335,1.8667Z"/>
    </symbol>
    <symbol id="linkedin" viewBox="0 0 16 16">
        <path d="M14.81635,0H1.18015A1.16757,1.16757,0,0,0,0,1.15365V14.84546A1.16833,1.16833,0,0,0,1.18015,16h13.6362A1.17052,1.17052,0,0,0,16,14.84546V1.15365A1.16977,1.16977,0,0,0,14.81635,0ZM4.74622,13.63368H2.37072V5.99826h2.3755ZM3.55912,4.95505A1.37618,1.37618,0,1,1,4.93457,3.57878,1.37558,1.37558,0,0,1,3.55912,4.95505Zm10.07539,8.67863H11.26159V9.92057c0-.88541-.01519-2.02452-1.23311-2.02452-1.23481,0-1.42321.96506-1.42321,1.96115v3.77648H6.235V5.99826h2.2748V7.04207h.03255a2.49287,2.49287,0,0,1,2.24529-1.23329c2.40281,0,2.84689,1.581,2.84689,3.6374Z"/>
    </symbol>
    <symbol id="mail" viewBox="0 0 16 16">
        <path d="M1.11621 4.2666a2.0026 2.0026 0 0 1-.583-.8833v-.7666A.47788.47788 0 0 1 .667 2.2749a.56688.56688 0 0 1 .3164-.1748 49.3662 49.3662 0 0 1 14.0166 0 .57417.57417 0 0 1 .333.1748.482.482 0 0 1 .13379.3418v.7666a2.0026 2.0026 0 0 1-.583.8833L9.2002 8.56689A1.88658 1.88658 0 0 1 8 8.93311a1.88658 1.88658 0 0 1-1.2002-.36622zM10.18359 10l5.28321-4.0498v7.4331a.48117.48117 0 0 1-.13379.3418.57141.57141 0 0 1-.333.1748 48.721 48.721 0 0 1-7 .5 49.29676 49.29676 0 0 1-7.0166-.5.564.564 0 0 1-.31641-.1748.47707.47707 0 0 1-.13379-.3418V5.9502L5.81641 10A3.5224 3.5224 0 0 0 8 10.6665 3.5224 3.5224 0 0 0 10.18359 10z"/>
    </symbol>
    <symbol id="share" viewBox="0 0 16 16">
        <path d="M12.04819,11.30924a2.339,2.339,0,0,0-1.57429.61847L4.747,8.59438a2.62943,2.62943,0,0,0,.07229-.56225A2.62943,2.62943,0,0,0,4.747,7.46988l5.66265-3.3012a2.40426,2.40426,0,1,0-.77108-1.759,2.62942,2.62942,0,0,0,.07228.56225L4.04819,6.27309a2.40965,2.40965,0,1,0,0,3.51808l5.71888,3.34136a2.266,2.266,0,0,0-.06426.52209,2.34539,2.34539,0,1,0,2.34538-2.34538Z"/>
    </symbol>
    <symbol id="twitter" viewBox="0 0 16 16">
        <path d="M14.36719,4.73438v.42968A9.26817,9.26817,0,0,1,5.03906,14.5,9.21783,9.21783,0,0,1,0,13.16406a5.18177,5.18177,0,0,0,.78125.05469,6.62381,6.62381,0,0,0,4.07031-1.55469A3.27084,3.27084,0,0,1,1.79688,9.38281a3.22534,3.22534,0,0,0,.60937.0625,3.2821,3.2821,0,0,0,.875-.11719A3.27938,3.27938,0,0,1,.64844,6.10938V6.07031a3.29,3.29,0,0,0,1.48437.40625A3.266,3.266,0,0,1,.66406,3.75781a3.12781,3.12781,0,0,1,.44532-1.59375A9.32841,9.32841,0,0,0,7.86719,5.53125a3.4194,3.4194,0,0,1-.07031-.75781A3.26752,3.26752,0,0,1,11.07031,1.5a3.39565,3.39565,0,0,1,2.41407,1.03125,6.58929,6.58929,0,0,0,2.07031-.79687,3.25439,3.25439,0,0,1-1.44531,1.82031A6.402,6.402,0,0,0,16,3.03125,6.64835,6.64835,0,0,1,14.36719,4.73438Z"/>
    </symbol>
    <symbol id="youtube" viewBox="0 0 16 16">
        <path d="M16,8c0,5.66406,0,5.66406-8,5.66406S0,13.66406,0,8,0,2.33594,8,2.33594,16,2.33594,16,8ZM11,8,6,5v6Z"/>
    </symbol>
     <symbol id="search" viewBox="0 0 20 20">
        <path fill="#505666" d="M19.129,18.164l-4.518-4.52c1.152-1.373,1.852-3.143,1.852-5.077c0-4.361-3.535-7.896-7.896-7.896             c-4.361,0-7.896,3.535-7.896,7.896s3.535,7.896,7.896,7.896c1.934,0,3.705-0.698,5.078-1.853l4.52,4.519             c0.266,0.268,0.699,0.268,0.965,0C19.396,18.863,19.396,18.431,19.129,18.164z M8.567,15.028c-3.568,0-6.461-2.893-6.461-6.461             s2.893-6.461,6.461-6.461c3.568,0,6.46,2.893,6.46,6.461S12.135,15.028,8.567,15.028z"/>
        </symbol>
        
</svg>